<?xml version="1.0" encoding="UTF-8"?>
<svg width="130px" height="31px" viewBox="0 0 130 31" version="1.1" xmlns="http://www.w3.org/2000/svg" xmlns:xlink="http://www.w3.org/1999/xlink">
    <!-- Generator: Sketch 53.2 (72643) - https://sketchapp.com -->
    <title>MF_Logo_130w</title>
    <desc>Created with Sketch.</desc>
    <defs>
        <polygon id="path-1" points="0 0.000105823387 129.574759 0.000105823387 129.574759 30.6057108 0 30.6057108"></polygon>
    </defs>
    <g id="MF_Logo_130w" stroke="none" stroke-width="1" fill="none" fill-rule="evenodd">
        <g id="Group">
            <polygon id="Fill-1" fill="#0079EF" points="6.04248258 0 6.04248258 5.95108398 25.0333079 5.95108398 25.0333079 24.654521 31.0760484 24.654521 31.0760484 0"></polygon>
            <polygon id="Fill-2" fill="#0079EF" points="0 5.95104165 0 30.6057743 25.0333509 30.6057743 25.0333509 24.6544787 6.04252556 24.6544787 6.04252556 5.95104165"></polygon>
            <polygon id="Fill-3" fill="#0079EF" points="50.2689216 0.0112384437 45.6462326 6.5775796 41.0235437 0.0112384437 38.3966203 0.0112384437 38.3966203 13.2044517 41.0235437 13.2044517 41.0235437 4.55381315 44.8367087 10.0303851 46.4170748 10.0303851 50.2100393 4.55381315 50.2100393 13.2044517 52.8380372 13.2044517 52.8380372 0.0112384437"></polygon>
            <polygon id="Fill-4" fill="#0079EF" points="59.5811329 13.2043247 62.2087011 13.2043247 62.2087011 0.0111114556 59.5811329 0.0111114556"></polygon>
            <path d="M82.0921087,11.894845 L82.0921087,8.9387745 L79.4641108,8.96353717 L79.4641108,10.6247527 L71.5816214,10.6247527 L71.5816214,2.59000623 L79.4641108,2.59000623 L79.4641108,4.27217479 L82.0921087,4.27661937 L82.0921087,1.34044368 C82.0921087,0.585922928 81.5187586,0.0113019377 80.767902,0.0113019377 L70.2584892,0.0113019377 C69.5278332,0.0113019377 68.954698,0.585922928 68.954698,1.34044368 L68.954698,11.894845 C68.954698,12.628836 69.5278332,13.2043036 70.2584892,13.2043036 L80.767902,13.2043036 C81.5187586,13.2043036 82.0921087,12.628836 82.0921087,11.894845" id="Fill-5" fill="#0079EF"></path>
            <mask id="mask-2" fill="white">
                <use xlink:href="#path-1"></use>
            </mask>
            <g id="Clip-8"></g>
            <path d="M91.4648141,2.59002739 L99.3473035,2.59002739 L99.3473035,5.34736156 L91.4648141,5.34736156 L91.4648141,2.59002739 Z M101.974227,13.2043247 L98.0235267,7.92733573 L100.65002,7.92733573 C101.401092,7.92733573 101.974227,7.35144486 101.974227,6.6176655 L101.974227,1.34046484 C101.974227,0.585944093 101.401092,0.0113231024 100.65002,0.0113231024 L88.8368162,0.0113231024 L88.8368162,13.2043247 L91.4648141,13.2043247 L91.4648141,7.92733573 L94.7235401,7.92733573 L98.6555442,13.2043247 L101.974227,13.2043247 Z" id="Fill-7" fill="#0079EF" mask="url(#mask-2)"></path>
            <path d="M111.34704,2.59002739 L119.229314,2.59002739 L119.229314,10.6249855 L111.34704,10.6249855 L111.34704,2.59002739 Z M121.856453,11.8948662 L121.856453,1.34046484 C121.856453,0.585944093 121.283532,0.0113231024 120.53332,0.0113231024 L110.023048,0.0113231024 C109.292177,0.0113231024 108.719042,0.585944093 108.719042,1.34046484 L108.719042,11.8948662 C108.719042,12.6288572 109.292177,13.2043247 110.023048,13.2043247 L120.53332,13.2043247 C121.283532,13.2043247 121.856453,12.6288572 121.856453,11.8948662 L121.856453,11.8948662 Z" id="Fill-9" fill="#0079EF" mask="url(#mask-2)"></path>
            <polygon id="Fill-10" fill="#0079EF" mask="url(#mask-2)" points="51.5320754 19.8962148 51.5320754 17.3170872 38.3957392 17.3170872 38.3957392 30.5105121 41.0226626 30.5105121 41.0226626 25.2136283 48.905152 25.2136283 48.905152 22.6141826 41.0226626 22.6141826 41.0226626 19.8962148"></polygon>
            <path d="M57.8189625,19.8961724 L65.7016668,19.8961724 L65.7016668,27.9307073 L57.8189625,27.9307073 L57.8189625,19.8961724 Z M68.3294498,29.2007995 L68.3294498,18.6466099 C68.3294498,17.8920891 67.7563146,17.3170449 67.005458,17.3170449 L56.4958303,17.3170449 C55.7651743,17.3170449 55.1918242,17.8920891 55.1918242,18.6466099 L55.1918242,29.2007995 C55.1918242,29.9345789 55.7651743,30.5104698 56.4958303,30.5104698 L67.005458,30.5104698 C67.7563146,30.5104698 68.3294498,29.9345789 68.3294498,29.2007995 L68.3294498,29.2007995 Z" id="Fill-11" fill="#0079EF" mask="url(#mask-2)"></path>
            <path d="M86.1711465,29.2008419 L86.1711465,26.2447714 L83.5429337,26.2693224 L83.5429337,27.9305379 L75.6606592,27.9305379 L75.6606592,19.8962148 L83.5429337,19.8962148 L83.5429337,21.57796 L86.1711465,21.5828279 L86.1711465,18.6464406 C86.1711465,17.8921315 85.5980113,17.3170872 84.8471548,17.3170872 L74.3375271,17.3170872 C73.606871,17.3170872 73.0337358,17.8921315 73.0337358,18.6464406 L73.0337358,29.2008419 C73.0337358,29.9346212 73.606871,30.5105121 74.3375271,30.5105121 L84.8471548,30.5105121 C85.5980113,30.5105121 86.1711465,29.9346212 86.1711465,29.2008419" id="Fill-12" fill="#0079EF" mask="url(#mask-2)"></path>
            <path d="M104.012908,29.2008419 L104.012908,17.3170872 L101.384695,17.3170872 L101.384695,27.9305379 L93.5024204,27.9305379 L93.5024204,17.3170872 L90.875497,17.3170872 L90.875497,29.2008419 C90.875497,29.9346212 91.4486322,30.5105121 92.1792883,30.5105121 L102.688916,30.5105121 C103.439773,30.5105121 104.012908,29.9346212 104.012908,29.2008419" id="Fill-13" fill="#0079EF" mask="url(#mask-2)"></path>
            <path d="M121.854454,29.2008419 L121.854454,23.9433244 C121.854454,23.209545 121.281534,22.6141826 120.530677,22.6141826 L111.344182,22.6141826 L111.344182,19.8962148 L119.226456,19.8962148 L119.226456,21.2850409 L121.854454,21.2899088 L121.854454,18.6464406 C121.854454,17.8921315 121.281534,17.3170872 120.530677,17.3170872 L110.02105,17.3170872 C109.290393,17.3170872 108.717258,17.8921315 108.717258,18.6464406 L108.717258,23.8834283 C108.717258,24.6180543 109.290393,25.2134167 110.02105,25.2134167 L119.226456,25.2134167 L119.226456,27.9305379 L111.344182,27.9305379 L111.344182,26.5620299 L108.717258,26.5376905 L108.717258,29.2008419 C108.717258,29.9346212 109.290393,30.5105121 110.02105,30.5105121 L120.530677,30.5105121 C121.281534,30.5105121 121.854454,29.9346212 121.854454,29.2008419" id="Fill-14" fill="#0079EF" mask="url(#mask-2)"></path>
            <path d="M126.613647,2.40183108 L127.144877,2.40183108 C127.574674,2.40183108 127.739072,2.25346669 127.739072,1.87059768 C127.739072,1.48095597 127.581551,1.35290967 127.098244,1.35290967 L126.613647,1.35290967 L126.613647,2.40183108 Z M127.745734,4.04801969 L127.118874,2.71739642 L126.613647,2.71739642 L126.613647,4.04801969 L126.24531,4.04801969 L126.24531,1.02379894 L127.151753,1.02379894 C127.82804,1.02379894 128.107194,1.31925783 128.107194,1.87059768 C128.107194,2.31420932 127.896378,2.59591117 127.500749,2.67697189 L128.148239,4.04801969 L127.745734,4.04801969 Z M127.151753,0.359228069 C125.91673,0.359228069 124.935287,1.31925783 124.935287,2.54215289 C124.935287,3.74599974 125.91673,4.7128022 127.144877,4.7128022 C128.367436,4.7128022 129.348879,3.74599974 129.348879,2.54215289 C129.348879,1.31248514 128.394728,0.359228069 127.151753,0.359228069 L127.151753,0.359228069 Z M127.144877,4.92847027 C125.781344,4.92847027 124.716305,3.87954886 124.716305,2.53665008 C124.716305,1.18570872 125.781344,0.143560007 127.151753,0.143560007 C128.489069,0.143560007 129.574738,1.19925411 129.574738,2.50299824 C129.574738,3.86600346 128.509699,4.92847027 127.144877,4.92847027 L127.144877,4.92847027 Z" id="Fill-15" fill="#0079EF" mask="url(#mask-2)"></path>
        </g>
    </g>
</svg>